<svg width="48.000000" height="48.000000" viewBox="0 0 48 48" fill="none" xmlns="http://www.w3.org/2000/svg" xmlns:xlink="http://www.w3.org/1999/xlink">
	<desc>
			Created with Pixso.
	</desc>
	<defs/>
	<path d="M7.49527 41.424C2.87918 37.05 0 30.8612 0 24C0 10.7451 10.7452 0 24 0C37.2548 0 48 10.7451 48 24C48 37.2549 37.2548 48 24 48C18.1861 48 12.855 45.9327 8.70175 42.4932C11.5651 40.5901 14.3234 38.5859 16.9311 36.4788C17.0611 36.5042 17.2871 36.5421 17.5939 36.5699C17.8177 36.5897 18.0812 36.605 18.3781 36.5897C18.6644 36.573 18.9765 36.5197 19.3069 36.4557C19.7394 36.3735 20.1978 36.2532 20.6713 36.1024C21.251 35.9185 21.8453 35.6874 22.4193 35.397C23.9929 35.9882 26.3876 36.4192 28.5674 35.7297C30.3765 35.1572 32.0531 33.8293 32.9743 31.1737L33.1098 30.8052L32.8069 30.7352C31.7014 30.4321 30.4252 30.2144 29.1248 30.2341C28.2843 30.2478 27.4376 30.3651 26.6275 30.5951C24.6388 31.1631 22.8725 32.4193 21.8827 34.6501L21.7994 34.8319C21.5837 34.8942 21.3675 34.9497 21.1525 35C20.2145 35.2178 19.3009 35.2681 18.5563 35.3502C18.4521 35.3619 18.3518 35.3749 18.2555 35.3887C21.3426 32.7997 24.1983 30.0599 26.7416 27.1661C26.8404 27.1169 27.1162 26.9769 27.5116 26.7534C27.7415 26.6226 28.0096 26.4702 28.2989 26.2828C28.9567 25.858 29.7302 25.2947 30.6286 24.8394C30.6938 24.8064 30.7595 24.7737 30.8256 24.7413L30.8259 24.7415C32.3837 25.3765 35.5327 25.7177 37.7057 25.1116C38.8279 24.7994 39.6928 24.239 40.0141 23.3909C40.1055 23.1514 40.1563 22.8876 40.1563 22.598C40.1563 22.2509 40.0833 21.8668 39.9197 21.4434C39.6334 20.3546 38.8005 19.7911 37.7285 19.6327C37.1514 19.5475 36.4996 19.6053 35.8266 19.7744C35.1886 19.9343 34.5308 20.2052 33.9019 20.5662C32.5348 21.351 31.3075 22.5581 30.6103 23.9185C30.236 24.0377 29.8721 24.1722 29.5231 24.3156C29.3036 24.406 29.0906 24.499 28.8855 24.5945C29.2512 24.131 29.6087 23.6638 29.9579 23.193C30.6188 22.3009 31.1214 21.4879 31.5636 20.6095C33.4125 19.7875 34.7874 17.5829 35.4284 15.2762C35.704 14.2828 35.8471 13.2778 35.8471 12.3749C35.8471 11.5768 35.7353 10.8585 35.5046 10.2985C35.1574 9.45483 34.559 8.94177 33.6925 8.95996C32.3312 8.86707 31.2789 9.38025 30.5069 10.2482C30.0135 10.8009 29.6511 11.5135 29.4029 12.313C29.1623 13.0896 29.0405 13.9546 29.0283 14.8455C29.0276 14.8926 29.0273 14.9398 29.0273 14.9872C29.0273 16.9252 29.5425 18.9708 30.3927 20.545L30.5528 20.8502C30.1914 21.46 29.7847 22.0522 29.2893 22.6859C27.4489 25.0448 25.3876 27.2974 23.148 29.4481C23.1784 29.217 23.1867 28.963 23.1938 28.6932C23.1957 28.6136 23.1966 28.5328 23.1966 28.451C23.1966 28.1384 23.1833 27.8105 23.1603 27.4751C23.1438 27.2213 23.1213 26.9646 23.0917 26.7086C23.8101 25.6259 24.1128 24.3861 24.1128 23.1772C24.1128 22.547 24.0305 21.9252 23.882 21.3384C23.5729 20.1248 22.9912 19.068 22.3029 18.4102C21.6177 17.7554 20.832 17.4812 20.0934 17.7629C19.0549 18.0233 18.5051 18.8228 18.3483 19.8765C18.3222 20.0507 18.3096 20.2325 18.3096 20.4205C18.3096 20.8243 18.3677 21.2566 18.4747 21.7024C18.6209 22.3083 18.8706 22.9403 19.2086 23.5555C19.901 24.8184 20.9644 26.0101 22.2165 26.8523C22.1837 27.3759 22.1223 27.892 22.0624 28.3719C22.0213 28.7085 21.9665 29.0222 21.9421 29.307C21.9305 29.4578 21.9278 29.5979 21.9278 29.7281C21.9278 29.7689 21.928 29.8086 21.9284 29.8475C21.9314 30.1897 21.946 30.4399 21.9554 30.5686C18.5016 33.7438 14.6626 36.6908 10.5819 39.4243C10.5866 39.4086 10.5914 39.3927 10.5961 39.3768C10.6647 39.1454 10.7316 38.8987 10.794 38.6383C10.8503 38.3993 10.9022 38.1495 10.9494 37.8906C11.2585 36.2324 11.5051 34.1995 11.5234 32.1849C11.524 32.1136 11.5243 32.0425 11.5243 31.9714C11.5243 30.9862 11.465 30.0094 11.3249 29.0857L11.4449 28.7739C12.0598 27.1049 12.4225 25.2889 12.4225 23.5239C12.4225 23.0862 12.4002 22.6516 12.3539 22.2231C12.1072 19.9558 11.1982 17.8605 9.38614 16.3818L9.15619 16.1885L9.01001 16.2921C7.61517 17.1997 6.79285 18.5503 6.47 20.0532C6.3652 20.5411 6.31641 21.0454 6.31641 21.554C6.31641 22.0724 6.36713 22.5951 6.46091 23.1094C6.94128 25.7411 8.59509 28.1532 10.6567 28.9659C10.6967 29.4263 10.7147 29.8998 10.7147 30.3806C10.7147 30.9619 10.6884 31.5541 10.6432 32.1469C10.6293 32.3309 10.6133 32.515 10.5955 32.6987C10.4037 31.5042 10.0182 30.6396 9.52704 30.004C8.46112 28.6213 6.89575 28.3047 5.67297 28.0671L5.35318 27.9971L5.28012 28.2057C4.90002 29.1147 4.72363 29.9243 4.72363 30.637C4.72363 30.8066 4.73361 30.9707 4.75323 31.1294C4.84918 31.9014 5.17355 32.5455 5.6319 33.0602C6.63538 34.1901 8.37286 34.7017 10.2672 34.6667L10.3397 34.6667C10.1699 35.731 9.96246 36.7463 9.76468 37.6501C9.70987 37.9028 9.65656 38.1449 9.61087 38.3794C9.55908 38.6353 9.51489 38.8804 9.47379 39.1119C9.39514 39.5653 9.3248 39.9639 9.26614 40.293C8.68027 40.6742 8.08984 41.0513 7.49527 41.424ZM31.2094 19.6278C31.1885 19.6364 31.1675 19.6447 31.1465 19.6527C30.5351 18.2773 30.2244 16.5941 30.2244 14.9973C30.2244 14.9517 30.2247 14.9061 30.2252 14.8606C30.2358 14.075 30.3196 13.3151 30.4947 12.6207C30.7079 11.7771 31.0399 11.0339 31.5591 10.4857C32.0875 9.92847 32.7758 9.55078 33.6925 9.48535C34.3138 9.49902 34.7081 9.9071 34.932 10.5208C35.0874 10.9493 35.1607 11.4729 35.1607 12.0515C35.1607 12.9637 34.9786 14.0129 34.6488 15.0433C34.169 16.5441 33.3752 18.0201 32.3154 18.9355C32.5365 18.3895 32.7578 17.7985 32.9957 17.1385C33.0105 17.0996 33.0175 17.0596 33.0175 17.0203C33.0175 16.8855 32.9352 16.7582 32.8008 16.7075C32.6288 16.6436 32.4354 16.7305 32.3715 16.9041C31.9586 17.9598 31.5967 18.8337 31.2094 19.6278ZM7.50705 20.2498C7.71414 19.0117 8.24405 17.8499 9.27646 16.991C10.7596 18.3965 11.4722 20.2802 11.6291 22.2902C11.6518 22.5802 11.6628 22.8727 11.6628 23.1669C11.6628 24.5857 11.4059 26.041 10.9601 27.4187C10.8001 26.8812 10.6014 26.3768 10.3586 25.9174C10.3098 25.8169 10.188 25.7742 10.086 25.8229C10.0137 25.8579 9.97137 25.9307 9.97137 26.0062C9.97137 26.0358 9.97784 26.0657 9.99155 26.0939C10.2272 26.6338 10.3961 27.229 10.5112 27.8619C8.99603 26.9556 7.897 24.9851 7.5329 22.916C7.44916 22.4413 7.40582 21.9611 7.40582 21.4844C7.40582 21.068 7.4389 20.6544 7.50705 20.2498ZM23.2249 22.8583C23.2249 23.6128 23.094 24.3826 22.7897 25.1018C22.6949 24.7625 22.5801 24.4412 22.4416 24.1494C22.4005 24.0413 22.2802 23.9865 22.1705 24.026C22.0862 24.0581 22.0343 24.1392 22.0343 24.2246C22.0343 24.2488 22.0385 24.2732 22.0472 24.2971C22.1485 24.6648 22.2019 25.0695 22.2255 25.4934C21.4185 24.7731 20.7532 23.8809 20.2578 22.9799C19.9655 22.4485 19.731 21.9139 19.5681 21.3993C19.4086 20.8914 19.3114 20.4099 19.3114 19.9714C19.3114 19.8447 19.3195 19.7216 19.3366 19.6024C19.4219 19.0101 19.6868 18.5228 20.2655 18.2578C20.6873 18.1239 21.1091 18.2549 21.4974 18.5457C22.2329 19.0969 22.8297 20.2222 23.0901 21.5181C23.1768 21.9495 23.2249 22.401 23.2249 22.8583ZM37.5199 24.3792C35.9296 24.7383 33.8061 24.5482 32.2973 24.1334C32.6899 24.0044 33.0915 23.902 33.499 23.8373C33.609 23.8286 33.6915 23.736 33.6915 23.6274C33.6915 23.6218 33.6913 23.6162 33.6908 23.6105C33.6817 23.4948 33.5797 23.4095 33.464 23.4187C33.0265 23.4235 32.5886 23.4667 32.1561 23.5391C32.7915 22.7646 33.6284 22.1058 34.4987 21.6046C35.0424 21.291 35.5966 21.0382 36.1372 20.8646C36.8133 20.6454 37.4559 20.5372 38.0163 20.6226C38.6299 20.7155 39.1416 21.0032 39.4248 21.6199C39.5241 21.9236 39.5703 22.1986 39.5703 22.4473C39.5703 23.5292 38.6961 24.1117 37.5199 24.3792ZM5.71072 30.0785C5.71072 29.6499 5.76605 29.1796 5.8938 28.6625C6.91861 28.9169 8.13678 29.2838 8.9408 30.4351C9.4509 31.1644 9.78284 32.2075 9.81024 33.7288C8.42303 33.6298 7.19269 33.1927 6.44958 32.34C6.12372 31.9669 5.90292 31.5116 5.79483 30.9634C5.74106 30.6899 5.71072 30.3956 5.71072 30.0785ZM28.4853 31.3413C29.8055 31.1708 31.144 31.1935 32.3225 31.3762C31.3891 33.5035 29.9258 34.5771 28.3558 35.0172C26.6524 35.4928 24.8344 35.2303 23.4588 34.7826C23.6841 34.6272 23.9019 34.46 24.1097 34.2798C24.1649 34.2382 24.1943 34.1749 24.1943 34.111C24.1943 34.0674 24.1807 34.0236 24.1523 33.9858C24.0838 33.8931 23.9514 33.8732 23.8585 33.9417C23.6248 34.0895 23.3823 34.2206 23.1337 34.3375C23.8372 33.2354 24.7991 32.5015 25.8707 32.0249C26.696 31.658 27.5884 31.457 28.4853 31.3413Z" clip-rule="evenodd" fill="#FFFFFF" fill-opacity="1.000000" fill-rule="evenodd"/>
</svg>
